<svg width="725" height="123" viewBox="0 0 725 123" fill="none" xmlns="http://www.w3.org/2000/svg">
<path d="M678.726 122.985C661.667 122.985 651.269 113.075 651.269 97.9659C651.269 83.1817 661.992 73.9212 681 72.459L705.045 70.6719V68.8848C705.045 57.9997 698.546 53.6132 688.474 53.6132C676.776 53.6132 670.278 58.4871 670.278 66.9352H653.381C653.381 49.5516 667.678 38.1791 689.448 38.1791C711.056 38.1791 724.378 49.8765 724.378 72.1341V120.873H706.994L705.532 109.013C702.121 117.299 691.235 122.985 678.726 122.985ZM685.224 108.039C697.409 108.039 705.207 100.728 705.207 88.3805V84.1564L688.474 85.4562C676.126 86.5934 671.415 90.655 671.415 97.1536C671.415 104.464 676.289 108.039 685.224 108.039Z" fill="#DC0017"/>
<path d="M629.329 24.5329C622.506 24.5329 617.145 19.1715 617.145 12.5105C617.145 5.84949 622.506 0.650635 629.329 0.650635C635.828 0.650635 641.189 5.84949 641.189 12.5105C641.189 19.1715 635.828 24.5329 629.329 24.5329ZM619.419 120.874V40.6168H639.24V120.874H619.419Z" fill="#DC0017"/>
<path d="M569.763 122.985C545.881 122.985 529.147 105.602 529.147 80.7447C529.147 55.5627 545.556 38.1791 569.113 38.1791C593.158 38.1791 608.43 54.263 608.43 79.2825V85.2937L547.993 85.4562C549.455 99.5905 556.929 106.739 570.088 106.739C580.973 106.739 588.122 102.515 590.396 94.8791H608.755C605.343 112.425 590.721 122.985 569.763 122.985ZM569.276 54.4255C557.578 54.4255 550.43 60.7616 548.48 72.7839H588.772C588.772 61.7364 581.136 54.4255 569.276 54.4255Z" fill="#FCF6F2"/>
<path d="M471.125 122.985C447.892 122.985 433.433 105.927 433.433 81.0696C433.433 56.0501 448.055 38.1791 472.262 38.1791C483.472 38.1791 493.382 42.8905 498.418 50.8513V0H518.077V120.873H499.881L498.581 108.364C493.707 117.624 483.309 122.985 471.125 122.985ZM475.511 104.789C489.321 104.789 498.256 94.8791 498.256 80.4198C498.256 65.9604 489.321 55.8877 475.511 55.8877C461.702 55.8877 453.253 66.1229 453.253 80.4198C453.253 94.7166 461.702 104.789 475.511 104.789Z" fill="#FCF6F2"/>
<path d="M341.526 80.5822C341.526 55.5628 359.56 38.3416 384.417 38.3416C409.274 38.3416 427.307 55.5628 427.307 80.5822C427.307 105.602 409.274 122.823 384.417 122.823C359.56 122.823 341.526 105.602 341.526 80.5822ZM361.347 80.5822C361.347 95.204 370.77 105.114 384.417 105.114C398.064 105.114 407.487 95.204 407.487 80.5822C407.487 65.9605 398.064 56.0501 384.417 56.0501C370.77 56.0501 361.347 65.9605 361.347 80.5822Z" fill="#DC0017"/>
<path d="M320.723 24.5329C313.9 24.5329 308.538 19.1715 308.538 12.5105C308.538 5.84949 313.9 0.650635 320.723 0.650635C327.222 0.650635 332.583 5.84949 332.583 12.5105C332.583 19.1715 327.222 24.5329 320.723 24.5329ZM310.813 120.874V40.6168H330.633V120.874H310.813Z" fill="#DC0017"/>
<path d="M248.079 122.985C224.847 122.985 210.388 105.927 210.388 81.0696C210.388 56.0501 225.009 38.1791 249.217 38.1791C260.427 38.1791 270.337 42.8905 275.373 50.8513V0H295.032V120.873H276.836L275.536 108.364C270.662 117.624 260.264 122.985 248.079 122.985ZM252.466 104.789C266.275 104.789 275.211 94.8791 275.211 80.4198C275.211 65.9604 266.275 55.8877 252.466 55.8877C238.656 55.8877 230.208 66.1229 230.208 80.4198C230.208 94.7166 238.656 104.789 252.466 104.789Z" fill="#DC0017"/>
<path d="M181.267 40.6158H201.088V120.873H182.729L181.267 110.15C176.393 117.786 165.995 122.985 155.273 122.985C136.752 122.985 125.867 110.475 125.867 90.8173V40.6158H145.687V83.8313C145.687 99.1029 151.699 105.277 162.746 105.277C175.256 105.277 181.267 97.9657 181.267 82.6941V40.6158Z" fill="#DC0017"/>
<path d="M103.797 120.874H83.9763V57.1876H68.5422V40.6162H83.9763V15.5967H103.797V40.6162H119.394V57.1876H103.797V120.874Z" fill="#DC0017"/>
<path d="M0 96.5037H18.8458C19.0083 103.49 24.2072 107.876 33.3052 107.876C42.5656 107.876 47.602 104.14 47.602 98.2908C47.602 94.2292 45.49 91.3049 38.3415 89.6802L23.8822 86.2685C9.42292 83.0192 2.43696 76.1957 2.43696 63.361C2.43696 47.602 15.759 38.1791 34.2799 38.1791C52.3135 38.1791 64.4983 48.5768 64.6607 64.1733H45.8149C45.6524 57.3498 41.1034 52.9633 33.4676 52.9633C25.6693 52.9633 21.1203 56.5375 21.1203 62.5487C21.1203 67.0977 24.6946 70.0221 31.518 71.6467L45.9774 75.0584C59.4619 78.1453 66.2854 84.3189 66.2854 96.6662C66.2854 112.913 52.4759 122.985 32.6553 122.985C12.6722 122.985 0 112.263 0 96.5037Z" fill="#DC0017"/>
</svg>
